<svg width="32" height="32" viewBox="0 0 32 32" fill="none" xmlns="http://www.w3.org/2000/svg">
<path d="M20.2877 1.11563C20.6821 0.902366 21.1707 0.990441 21.4664 1.32754C26.6736 7.26786 28.8005 14.2359 29.6139 20.7846C30.1361 24.9916 27.2307 27.7145 23.3463 29.1313C23.665 28.9061 23.9728 28.6725 24.2653 28.4272C26.781 26.3165 28.3336 23.3685 27.3883 19.8012L27.2887 19.4535C25.5193 13.695 22.6113 7.72221 17.4449 2.86465C18.3404 2.24424 19.2861 1.65806 20.2877 1.11563Z" fill="#165C26"/>
<path d="M13.733 1.99736C14.0845 1.71859 14.5814 1.72036 14.9312 2.00126C21.0908 6.94712 24.3954 13.4395 26.3336 19.7474C28.1852 25.7744 22.0005 29.8862 15.8131 31.2561L14.4332 11.929C14.4241 11.8056 14.2421 11.8055 14.233 11.929L12.8531 31.2561C6.6656 29.8862 0.481711 25.7744 2.33356 19.7474C4.27224 13.4379 7.5005 6.94368 13.733 1.99736Z" fill="#165C26"/>
</svg>
