<svg width="32" height="32" viewBox="0 0 32 32" fill="none" xmlns="http://www.w3.org/2000/svg">
<path d="M20.2867 1.11622C20.6814 0.902521 21.1706 0.990668 21.4664 1.32813C26.6735 7.26843 28.8005 14.2356 29.6139 20.7842C30.1361 24.9895 27.233 27.7116 23.3512 29.1289C23.6684 28.9046 23.9741 28.6711 24.2653 28.4268C26.781 26.3161 28.3336 23.3681 27.3883 19.8008L27.2887 19.4531C25.5193 13.6948 22.6111 7.72175 17.4449 2.86427C18.3402 2.24405 19.2854 1.65849 20.2867 1.11622ZM26.4196 20.0479C26.4719 20.2448 26.516 20.4401 26.5514 20.6328C26.516 20.4402 26.4719 20.2456 26.4196 20.0488V20.0479ZM25.9547 18.5635L26.1481 19.1553C26.0579 18.8741 25.9637 18.5931 25.8678 18.3115C25.8965 18.3957 25.9266 18.4793 25.9547 18.5635ZM25.609 17.5703C25.629 17.626 25.6488 17.6817 25.6686 17.7373C25.6488 17.6817 25.629 17.626 25.609 17.5703ZM24.1207 13.9414C24.2863 14.2964 24.4472 14.6519 24.6012 15.0088L24.8502 15.5996C24.6208 15.0448 24.3774 14.492 24.1207 13.9414ZM16.6168 3.45606C17.8393 4.59076 18.9339 5.79074 19.9156 7.03809L20.3317 7.58009C19.2454 6.13806 18.0152 4.75411 16.6168 3.45606Z" fill="#F3F8F6"/>
<path d="M13.7324 1.99746C14.0839 1.71848 14.5807 1.7204 14.9306 2.00137C21.0904 6.94725 24.3948 13.4395 26.333 19.7475C28.1848 25.7747 22.0001 29.8865 15.8125 31.2563L14.4326 11.9291C14.4235 11.8056 14.2424 11.8056 14.2334 11.9291L12.8525 31.2563C6.66527 29.8862 0.481412 25.7743 2.33299 19.7475C4.27166 13.438 7.5 6.94378 13.7324 1.99746Z" fill="#F3F8F6"/>
</svg>
