<svg width="48" height="48" viewBox="0 0 48 48" fill="none"
  xmlns="http://www.w3.org/2000/svg">
  <g clip-path="url(#clip0_21_30)">
    <path d="M35.9885 32.5176C31.3682 37.4045 26.9929 39.8219 22.6755 40.7268C18.5984 41.5812 14.3771 41.1288 9.76492 39.8378C8.49352 34.8014 7.77853 30.5707 8.32034 26.4979C8.88427 22.2587 10.8442 17.9841 15.4566 13.1056C20.0057 8.29409 24.217 6.06037 28.8738 4.88103C32.8388 3.87687 37.1139 3.62782 42.3792 3.32108C43.0019 3.28481 43.6384 3.24773 44.2899 3.20849C44.2925 3.44444 44.2951 3.67813 44.2977 3.90964C44.3679 10.14 44.4202 14.7864 43.5532 19.002C42.6147 23.5652 40.5751 27.6664 35.9885 32.5176Z" fill="#115C22" stroke="#FAFAFA" stroke-width="4"/>
    <path d="M20.7908 31.3864C11.4613 40.9314 3.73548 48.7351 2.1902 46.9997C-0.173918 45.2386 8.04509 37.5924 17.3745 28.0473C26.704 18.5022 35.0318 11.5119 35.9751 12.434C36.9185 13.356 30.1202 21.8413 20.7908 31.3864Z" fill="#FAFAFA"/>
  </g>
  <defs>
    <clipPath id="clip0_21_30">
      <rect width="48" height="48" fill="white"/>
    </clipPath>
  </defs>
</svg>
