<svg width="32" height="32" viewBox="0 0 32 32" fill="none" xmlns="http://www.w3.org/2000/svg">
<g clip-path="url(#clip0_106_2)">
<path d="M23.8713 21.5639C20.8171 24.7942 17.9362 26.3848 15.1054 26.9833C12.4429 27.5462 9.67971 27.2627 6.64796 26.4239C5.81411 23.1031 5.35622 20.3297 5.71497 17.6661C6.08905 14.8887 7.37692 12.076 10.4255 8.85155C13.4182 5.68625 16.1816 4.2131 19.2292 3.43111C21.8721 2.75295 24.7237 2.58672 28.2678 2.38011C28.6253 2.35927 28.9899 2.33802 29.3619 2.31579C29.363 2.40813 29.364 2.49995 29.365 2.59125C29.4122 6.78759 29.447 9.88382 28.8607 12.6903C28.2371 15.6746 26.8929 18.368 23.8713 21.5639ZM6.81695 27.0853C6.81675 27.0845 6.81654 27.0837 6.81634 27.0829C6.81655 27.0837 6.81675 27.0845 6.81696 27.0853L6.81695 27.0853Z" fill="#F3F8F6" stroke="#165C26" stroke-width="3"/>
<path d="M13.8606 20.9242C7.64093 27.2876 2.49036 32.49 1.46018 31.3331C-0.115902 30.1591 5.36343 25.0616 11.5831 18.6982C17.8027 12.3348 23.3545 7.67459 23.9835 8.28929C24.6124 8.904 20.0802 14.5609 13.8606 20.9242Z" fill="#165C26"/>
</g>
<defs>
<clipPath id="clip0_106_2">
<rect width="32" height="32" fill="white"/>
</clipPath>
</defs>
</svg>
