<svg width="48" height="48" viewBox="0 0 48 48" fill="none" xmlns="http://www.w3.org/2000/svg">
<g clip-path="url(#clip0_21_30)">
<path d="M32.7983 35.2583C28.178 40.1451 23.8027 42.5626 19.4853 43.4675C15.4082 44.3219 11.1869 43.8695 6.57473 42.5785C5.30334 37.5421 4.58835 33.3114 5.13015 29.2386C5.69409 24.9994 7.65398 20.7248 12.2664 15.8463C16.8502 10.998 21.0919 8.76612 25.7945 7.59382C29.7299 6.61278 33.968 6.36594 39.1728 6.0628C39.8006 6.02623 40.4425 5.98885 41.0996 5.94926C41.1023 6.19256 41.105 6.43348 41.1077 6.67207C41.1771 12.8375 41.229 17.4521 40.3837 21.6409C39.4544 26.2467 37.4176 30.3726 32.7983 35.2583Z" fill="#115C22" stroke="#FAFAFA" stroke-width="4"/>
</g>
<defs>
<clipPath id="clip0_21_30">
<rect width="48" height="48" fill="white"/>
</clipPath>
</defs>
</svg>
