<svg width="128" height="128" viewBox="0 0 128 128" fill="none" xmlns="http://www.w3.org/2000/svg">
<path d="M83.1588 3.39955C83.5572 3.1933 84.0493 3.28057 84.3512 3.61244C106.286 27.7374 115.124 56.3148 118.456 83.1359C120.701 101.215 107.123 112.445 89.8639 117.703C93.1593 115.877 96.2311 113.823 98.9674 111.548C108.675 103.476 114.258 92.5342 110.476 79.3263L110.289 78.6955C103.059 55.1674 91.0786 30.9335 69.5309 11.6222C73.7765 8.66538 78.3101 5.91117 83.1588 3.39955Z" fill="#165C26"/>
<path d="M56.7249 6.59244C57.0814 6.31997 57.5818 6.32177 57.9368 6.59634C83.7273 26.546 97.3941 53.1537 105.332 78.9889C112.74 103.097 88.0031 119.546 63.2532 125.026L57.7317 47.7174C57.6963 47.2221 56.9692 47.2221 56.9338 47.7174L51.4104 125.026C26.661 119.546 1.92511 103.097 9.33228 78.9889C17.2709 53.1523 30.6161 26.5424 56.7249 6.59244Z" fill="#165C26"/>
</svg>
