<svg width="32" height="32" viewBox="0 0 32 32" fill="none" xmlns="http://www.w3.org/2000/svg">
<path fill-rule="evenodd" clip-rule="evenodd" d="M17.6459 31.9378C25.7341 31.3024 28.0006 25.872 26.623 18.9907L23.5878 19.6118C23.3995 19.6503 23.2706 19.4269 23.3981 19.2831L25.9591 16.3951C25.5801 15.136 25.1708 14.0057 24.7317 12.9684L21.5878 13.6118C21.3995 13.6503 21.2706 13.4269 21.3981 13.2831L23.6663 10.7253C22.2785 8.10557 20.6485 6.0243 18.7863 3.64643L18.7863 3.64642C18.0308 2.68182 17.2372 1.66842 16.406 0.550462C16.2041 0.278916 15.7959 0.278915 15.594 0.550461C14.7628 1.6684 13.9692 2.6818 13.2138 3.64639L13.2137 3.64642C11.2177 6.19516 9.4885 8.40313 8.03834 11.2987L9.79808 13.2831C9.92561 13.4269 9.79665 13.6503 9.60835 13.6118L7.20466 13.1199C6.71217 14.3012 6.2578 15.6032 5.84212 17.0774L7.79809 19.2831C7.92561 19.4269 7.79665 19.6503 7.60835 19.6118L5.34594 19.1488C4.03453 25.9551 6.32796 31.3073 14.3541 31.9378L15.8103 27.5692C15.871 27.3869 16.129 27.3869 16.1897 27.5692L17.6459 31.9378Z" fill="#165C26"/>
</svg>
